{
  "accessors": [
    {
      "bufferView": 2,
      "componentType": 5126,
      "count": 14592,
      "max": [
        71.5795669555664,
        41.0557746887207,
        48.30923843383789
      ],
      "min": [
        -32.603668212890625,
        -72.6658935546875,
        -20.33131980895996
      ],
      "type": "VEC3"
    },
    {
      "bufferView": 2,
      "byteOffset": 175104,
      "componentType": 5126,
      "count": 14592,
      "max": [
        0.9998384118080139,
        1.0,
        0.9985827803611755
      ],
      "min": [
        -0.9998385310173035,
        -1.0,
        -0.9985828399658203
      ],
      "type": "VEC3"
    },
    {
      "bufferView": 1,
      "componentType": 5126,
      "count": 14592,
      "max": [
        0.996337890625,
        0.9868371486663818
      ],
      "min": [
        0.003662109375,
        0.003662109375
      ],
      "type": "VEC2"
    },
    {
      "bufferView": 0,
      "componentType": 5125,
      "count": 67392,
      "type": "SCALAR"
    },
    {
      "bufferView": 2,
      "byteOffset": 350208,
      "componentType": 5126,
      "count": 8039,
      "max": [
        93.18844604492188,
        84.12236022949219,
        119.08712768554688
      ],
      "min": [
        -87.39949035644531,
        -72.82169342041016,
        -67.74259185791016
      ],
      "type": "VEC3"
    },
    {
      "bufferView": 2,
      "byteOffset": 446676,
      "componentType": 5126,
      "count": 8039,
      "max": [
        1.0,
        1.0,
        1.0
      ],
      "min": [
        -1.0,
        -1.0,
        -1.0
      ],
      "type": "VEC3"
    },
    {
      "bufferView": 1,
      "byteOffset": 116736,
      "componentType": 5126,
      "count": 8039,
      "max": [
        0.996337890625,
        0.9968313574790955
      ],
      "min": [
        0.003662109375,
        0.003662109375
      ],
      "type": "VEC2"
    },
    {
      "bufferView": 0,
      "byteOffset": 269568,
      "componentType": 5125,
      "count": 38772,
      "type": "SCALAR"
    },
    {
      "bufferView": 2,
      "byteOffset": 543144,
      "componentType": 5126,
      "count": 4840,
      "max": [
        57.09132385253906,
        -40.0631217956543,
        127.61656188964844
      ],
      "min": [
        -57.09130859375,
        -72.80522918701172,
        -38.81855773925781
      ],
      "type": "VEC3"
    },
    {
      "bufferView": 2,
      "byteOffset": 601224,
      "componentType": 5126,
      "count": 4840,
      "max": [
        1.0,
        1.0,
        1.0
      ],
      "min": [
        -1.0,
        -1.0,
        -1.0
      ],
      "type": "VEC3"
    },
    {
      "bufferView": 1,
      "byteOffset": 181048,
      "componentType": 5126,
      "count": 4840,
      "max": [
        0.996337890625,
        0.9478418827056885
      ],
      "min": [
        0.003662109375,
        0.003662109375
      ],
      "type": "VEC2"
    },
    {
      "bufferView": 0,
      "byteOffset": 424656,
      "componentType": 5125,
      "count": 20796,
      "type": "SCALAR"
    }
  ],
  "asset": {
    "extras": {
      "author": "Dark Mermaids (https://sketchfab.com/darkmermaids)",
      "license": "SKETCHFAB Standard (https://sketchfab.com/licenses)",
      "source": "https://sketchfab.com/3d-models/sketchfab-weekly-computer-hal-3000-88c63d07d662432fb9f4c81894117652",
      "title": "Sketchfab Weekly - Computer - HAL-3000"
    },
    "generator": "Sketchfab-14.17.0",
    "version": "2.0"
  },
  "bufferViews": [
    {
      "buffer": 0,
      "byteLength": 507840,
      "name": "floatBufferViews",
      "target": 34963
    },
    {
      "buffer": 0,
      "byteLength": 219768,
      "byteOffset": 507840,
      "byteStride": 8,
      "name": "floatBufferViews",
      "target": 34962
    },
    {
      "buffer": 0,
      "byteLength": 659304,
      "byteOffset": 727608,
      "byteStride": 12,
      "name": "floatBufferViews",
      "target": 34962
    }
  ],
  "buffers": [
    {
      "byteLength": 1386912,
      "uri": "scene.bin"
    }
  ],
  "images": [
    {
      "uri": "textures/disk_baseColor.jpeg"
    },
    {
      "uri": "textures/disk_metallicRoughness.png"
    },
    {
      "uri": "textures/screen_props_baseColor.png"
    },
    {
      "uri": "textures/screen_props_metallicRoughness.png"
    },
    {
      "uri": "textures/screen_props_emissive.jpeg"
    },
    {
      "uri": "textures/base_keyboard_baseColor.jpeg"
    },
    {
      "uri": "textures/base_keyboard_metallicRoughness.png"
    }
  ],
  "materials": [
    {
      "doubleSided": true,
      "name": "disk",
      "pbrMetallicRoughness": {
        "baseColorTexture": {
          "index": 0
        },
        "metallicFactor": 0.55,
        "metallicRoughnessTexture": {
          "index": 1
        }
      }
    },
    {
      "alphaMode": "BLEND",
      "doubleSided": true,
      "emissiveFactor": [
        1.0,
        1.0,
        1.0
      ],
      "emissiveTexture": {
        "index": 4
      },
      "name": "screen_props",
      "pbrMetallicRoughness": {
        "baseColorTexture": {
          "index": 2
        },
        "metallicRoughnessTexture": {
          "index": 3
        }
      }
    },
    {
      "doubleSided": true,
      "name": "base_keyboard",
      "pbrMetallicRoughness": {
        "baseColorTexture": {
          "index": 5
        },
        "metallicFactor": 0.0,
        "metallicRoughnessTexture": {
          "index": 6
        }
      }
    }
  ],
  "meshes": [
    {
      "name": "disck_geo_disk_0",
      "primitives": [
        {
          "attributes": {
            "NORMAL": 1,
            "POSITION": 0,
            "TEXCOORD_0": 2
          },
          "indices": 3,
          "material": 0,
          "mode": 4
        }
      ]
    },
    {
      "name": "screen_props_geo_screen_props_0",
      "primitives": [
        {
          "attributes": {
            "NORMAL": 5,
            "POSITION": 4,
            "TEXCOORD_0": 6
          },
          "indices": 7,
          "material": 1,
          "mode": 4
        }
      ]
    },
    {
      "name": "base_keyboard_geo_base_keyboard_0",
      "primitives": [
        {
          "attributes": {
            "NORMAL": 9,
            "POSITION": 8,
            "TEXCOORD_0": 10
          },
          "indices": 11,
          "material": 2,
          "mode": 4
        }
      ]
    }
  ],
  "nodes": [
    {
      "children": [
        1
      ],
      "matrix": [
        1.0,
        0.0,
        0.0,
        0.0,
        0.0,
        2.220446049250313e-16,
        -1.0,
        0.0,
        0.0,
        1.0,
        2.220446049250313e-16,
        0.0,
        0.0,
        0.0,
        0.0,
        1.0
      ],
      "name": "Sketchfab_model"
    },
    {
      "children": [
        2
      ],
      "matrix": [
        0.009999999776482582,
        0.0,
        0.0,
        0.0,
        0.0,
        0.0,
        0.009999999776482582,
        0.0,
        0.0,
        -0.009999999776482582,
        0.0,
        0.0,
        0.0,
        0.0,
        0.0,
        1.0
      ],
      "name": "ffafbc01f1864672a493c7855736969a.fbx"
    },
    {
      "children": [
        3
      ],
      "name": "RootNode"
    },
    {
      "children": [
        4,
        6,
        8
      ],
      "name": "computer_grp"
    },
    {
      "children": [
        5
      ],
      "name": "disck_geo"
    },
    {
      "mesh": 0,
      "name": "disck_geo_disk_0"
    },
    {
      "children": [
        7
      ],
      "name": "screen_props_geo"
    },
    {
      "mesh": 1,
      "name": "screen_props_geo_screen_props_0"
    },
    {
      "children": [
        9
      ],
      "name": "base_keyboard_geo"
    },
    {
      "mesh": 2,
      "name": "base_keyboard_geo_base_keyboard_0"
    }
  ],
  "samplers": [
    {
      "magFilter": 9729,
      "minFilter": 9987,
      "wrapS": 10497,
      "wrapT": 10497
    }
  ],
  "scene": 0,
  "scenes": [
    {
      "name": "Sketchfab_Scene",
      "nodes": [
        0
      ]
    }
  ],
  "textures": [
    {
      "sampler": 0,
      "source": 0
    },
    {
      "sampler": 0,
      "source": 1
    },
    {
      "sampler": 0,
      "source": 2
    },
    {
      "sampler": 0,
      "source": 3
    },
    {
      "sampler": 0,
      "source": 4
    },
    {
      "sampler": 0,
      "source": 5
    },
    {
      "sampler": 0,
      "source": 6
    }
  ]
}
